<?xml version="1.0" encoding="utf-8"?>
<!-- Generator: Adobe Illustrator 24.1.3, SVG Export Plug-In . SVG Version: 6.00 Build 0)  -->
<svg version="1.1" id="Layer_1" xmlns="http://www.w3.org/2000/svg" xmlns:xlink="http://www.w3.org/1999/xlink" x="0px" y="0px"
	 viewBox="0 0 88.3 85.1" style="enable-background:new 0 0 88.3 85.1;" xml:space="preserve">
<path d="M10.6,21c-0.3-0.3-0.6-0.3-0.8,0l0.1,0.5c0.1,0.1,0.3,0.1,0.6,0.2C10.6,21.6,10.7,21.4,10.6,21z M17.4,19.8
	c0.8-0.9,0.7-1.8-0.3-2.7c-1-0.9-1.8-0.9-2.7,0c-0.8,0.9-0.8,1.8,0.2,2.7C15.6,20.7,16.5,20.7,17.4,19.8z M64.9,71.3
	c-0.4-0.4-0.9-0.6-1.7-0.7c0.7-1.4,1.2-2.4,1.4-2.9c1.5,0.5,2.8,0.1,3.8-0.9c1-1,1.2-2.1,0.8-3.2c1.9,1,3.4,1,4.4-0.1
	c0.4-0.5,0.7-1.2,0.7-2.1c0-0.9-0.4-1.7-1.1-2.3c-0.3-0.3-0.6-0.5-0.9-0.6c-0.3-0.1-0.5-0.2-0.6-0.3c-0.1-0.1-0.1-0.4,0.2-0.8
	c0.3-0.7,0.5-1.1,0.5-1.4c1.7,0.3,3,0,3.9-0.9c0.7-0.7,0.9-1.6,0.9-2.7c-0.1-1.1-0.5-2.1-1.4-2.9c-0.5-0.4-1.1-0.8-2-1.1
	c0.1-0.8,0.2-1.3,0.3-1.7c1.8,0.7,3.2,0.4,4.2-0.6c0.6-0.6,0.9-1.5,0.8-2.5c0-1.1-0.5-2-1.4-2.8c-0.5-0.5-1-0.7-1.6-0.8
	c0.3-1.4,0.4-2.5,0.2-3.1c1.4,0.4,2.5,0.2,3.1-0.5c0.3-0.3,0.5-0.9,0.5-1.7c0-0.8-0.3-1.5-0.8-2c-0.4-0.4-1-0.6-1.8-0.7
	c-0.8-0.1-1.5,0.1-2,0.6c-0.3,0.3-0.5,0.9-0.5,1.6c-1.3-0.8-2.1-1.3-2.2-1.3c-0.1-0.2,0-0.8,0.1-1.8c1.4,0.6,2.6,0.5,3.4-0.4
	c1.2-1.3,1.1-2.7-0.3-4c-1.5-1.4-2.9-1.4-4.1-0.1c-0.4,0.4-0.6,1-0.6,1.7c-0.8-0.4-1.4-0.7-1.7-0.9c0.1-0.9,0-1.7-0.1-2.3
	c1.3,0.5,2.3,0.3,3.1-0.5c1.1-1.2,1-2.5-0.4-3.8c-1.4-1.3-2.6-1.3-3.8-0.1c-0.3,0.4-0.5,0.8-0.6,1.3c-1-0.5-1.8-0.9-2.3-1.1
	c0.2-1.8-0.4-3.2-1.6-4.4c-1-0.9-2.1-1.3-3.4-1.3c0.3-1.7,0-2.9-0.9-3.8c-1.5-1.4-3-1.5-4.3-0.1c-0.1,0.1-0.2,0.3-0.4,0.6
	c-0.2,0.3-0.4,0.5-0.5,0.6c-1.2-0.6-2.2-1-2.9-1.1c0.1-1.4-0.3-2.5-1.2-3.4c-1.6-1.5-3.1-1.5-4.5-0.1c-0.4,0.5-0.7,1.2-0.7,2
	c-1.6-1.2-3.2-1.5-4.6-0.8c1-1.4,1-2.7,0-3.6C39,4.3,38,4.3,37,5.3c-1,1-0.9,2.1,0.2,3.1c0.6,0.6,1.4,0.8,2.3,0.7L38,11.4
	c-1-0.1-1.8-0.2-2.4-0.3c0.2-1.4-0.1-2.5-0.9-3.2c-0.5-0.5-1.2-0.7-2-0.8c-0.8-0.1-1.5,0.2-2,0.7c-0.4,0.4-0.6,1.1-0.6,1.9
	c0,0.8,0.3,1.5,1,2.1c0.4,0.3,0.9,0.6,1.7,0.7c-0.4,0.7-0.7,1.3-1,1.7C31,14,30.4,14,30,14c0.2-1.4-0.2-2.5-1-3.3
	c-0.5-0.5-1.2-0.8-2-0.9c-0.8-0.1-1.4,0.2-2,0.8c-0.4,0.5-0.7,1.1-0.6,1.8c0,0.9,0.3,1.6,1,2.2c0.3,0.3,0.6,0.5,1,0.6
	c0.4,0.1,0.6,0.2,0.6,0.2c0.1,0.1,0.1,0.3-0.2,0.7c-0.3,0.5-0.5,0.8-0.5,1c-0.6-0.1-1.4-0.1-2.3-0.2c0.1-1.1,0.1-1.7,0.1-1.8
	c0-0.5-0.3-0.9-0.8-1.4c-1.3-1.2-2.5-1.3-3.6-0.1c-1.1,1.1-0.9,2.3,0.4,3.6c0.5,0.5,1.1,0.7,1.7,0.7c-0.6,1.3-1,2.3-1.4,2.9
	c-1.6-0.4-2.8-0.1-3.7,0.9c-0.8,0.8-1,2-0.8,3.4c-1.7-1.3-3.2-1.3-4.3,0c-0.5,0.5-0.7,1.2-0.7,2c0,0.8,0.4,1.5,1.1,2.2
	c0.5,0.5,1,0.8,1.6,0.9c0,0-0.2,0.5-0.6,1.3c-0.3,0.5-0.3,1-0.1,1.5c-1.6-0.5-2.8-0.2-3.7,0.8c-0.6,0.6-0.8,1.4-0.7,2.4
	c0.1,1,0.5,1.8,1.2,2.5c0.1,0.1,0.4,0.3,0.7,0.5c0.4,0.2,0.6,0.3,0.7,0.4c0.1,0.1,0.1,0.5,0,1c-0.2,0.8-0.3,1.3-0.3,1.6
	c-1.4-0.4-2.5-0.2-3.3,0.7c-0.4,0.4-0.6,1.1-0.6,2c0,0.9,0.3,1.7,1.1,2.4c0.8,0.7,1.8,1,2.9,0.9c-1.5,2-1.4,3.8,0.3,5.4
	c0.7,0.7,1.6,1,2.6,1.1c-0.9,2.1-0.6,3.8,0.8,5.1c0.7,0.7,1.8,1.1,3.2,1.1c-0.8,1.9-0.6,3.5,0.7,4.7c0.7,0.7,1.5,1,2.5,1.1
	c1,0.1,1.8-0.3,2.4-1c0.8-0.9,1-2,0.5-3.4c0.9,0.7,1.6,1.1,2.1,1.2c-0.4,1.6-0.6,2.6-0.4,3.1c-1.6-0.6-2.8-0.5-3.6,0.4
	c-0.5,0.5-0.7,1.2-0.6,2.1c0.1,0.9,0.4,1.6,1,2.2c0.5,0.5,1.3,0.8,2.2,0.8c0.9,0,1.6-0.2,2.1-0.8c0.2-0.2,0.4-0.8,0.6-1.7l1.4,0.7
	c0.5,0.3,1,0.4,1.6,0.3c-0.7,1.6-0.4,3,1,4.2c0.6,0.5,1.4,0.9,2.6,1c1.1,0.1,2-0.1,2.6-0.8c0.7-0.8,1-1.5,0.7-2.3
	c0.9,0.6,1.8,0.9,2.5,0.8c-0.4,1.8-0.1,3.2,1,4.2c0.7,0.6,1.5,1,2.5,1c1,0.1,1.8-0.2,2.4-0.9c0.3-0.3,0.6-0.9,0.8-1.7
	c2.4,1,4.2,0.9,5.5-0.5c0.2-0.2,0.5-0.7,0.9-1.4c1.3,0.1,2.3,0.2,2.8,0.2c-0.4,1.3-0.2,2.3,0.7,3.1c0.5,0.4,1.1,0.7,1.8,0.7
	c0.7,0,1.3-0.2,1.8-0.7c0.4-0.4,0.5-1,0.5-1.7c-0.1-0.7-0.3-1.3-0.8-1.8c-0.4-0.3-0.9-0.6-1.7-0.8c0.6-0.9,0.9-1.5,1-2
	c0.3,0,0.7,0.1,1.3,0.1c0.6,0.1,1,0.1,1.3,0.1c-0.4,1.1-0.1,2,0.7,2.8c1.2,1.2,2.4,1.2,3.4,0.1C66.3,73.6,66.2,72.4,64.9,71.3z
	 M9.2,29c-0.9-0.9-1.7-0.9-2.5-0.1C6,29.7,6.1,30.6,7,31.4c0.9,0.8,1.7,0.8,2.4,0C10.2,30.6,10.1,29.8,9.2,29z M7.2,37.9
	C6.2,37,5.4,37,4.7,37.7c-0.8,0.8-0.7,1.6,0.2,2.5c0.9,0.8,1.7,0.8,2.4,0C8.1,39.5,8,38.7,7.2,37.9z M43.6,5
	c0.1,0.1,0.4,0.2,0.8,0.2c0.4,0,0.7,0,0.9-0.2c0.1-0.1,0.2-0.4,0.2-0.8c0-0.4-0.1-0.7-0.3-0.9C45,3,44.7,2.9,44.3,2.9
	c-0.4,0-0.7,0-0.9,0.2c-0.1,0.1-0.2,0.4-0.2,0.8C43.2,4.4,43.3,4.7,43.6,5z M3.6,47.3l-0.4,0.4c0.1,0.5,0.2,0.8,0.3,0.9
	c0.1,0.1,0.4,0.1,0.9,0.2l0.4-0.4c-0.1-0.5-0.2-0.8-0.3-0.9C4.4,47.4,4.1,47.3,3.6,47.3z M8.5,53.1c-0.8-0.7-1.4-0.7-2-0.1
	c-0.6,0.7-0.6,1.3,0.2,2c0.7,0.7,1.4,0.7,2.1,0.1C9.3,54.4,9.2,53.8,8.5,53.1z M52.6,8.3c0.8,0.7,1.5,0.7,2.2,0
	c0.7-0.7,0.6-1.4-0.2-2.2C53.7,5.4,53,5.3,52.4,6C51.7,6.8,51.7,7.5,52.6,8.3z M12.2,58.9c-0.8-0.7-1.5-0.7-2.2,0
	c-0.7,0.7-0.6,1.5,0.2,2.2c0.8,0.8,1.6,0.8,2.3,0.1C13.1,60.4,13,59.7,12.2,58.9z M62.4,10.9c0.3,0.3,0.6,0.4,0.9,0.3l0.4-0.4
	c0.1-0.4,0-0.7-0.3-1c-0.3-0.2-0.6-0.3-0.9-0.1l-0.4,0.4C62,10.4,62.1,10.7,62.4,10.9z M15.8,65.1c-0.2-0.2-0.5-0.3-1-0.4
	c-0.5,0-0.8,0-1,0.3c-0.6,0.7-0.6,1.3,0.2,2c0.2,0.2,0.5,0.3,1,0.3c0.4,0,0.8-0.1,1-0.3c0.2-0.2,0.2-0.5,0.2-0.9
	C16.2,65.7,16,65.4,15.8,65.1z M65.1,17.9c0.4,0.3,0.9,0.6,1.5,0.6c0.6,0.1,1.2-0.1,1.6-0.6c0.3-0.3,0.5-0.8,0.5-1.5
	c0-0.6-0.2-1.2-0.7-1.7c-0.5-0.4-1-0.6-1.7-0.7c-0.6,0-1.2,0.2-1.5,0.6c-0.3,0.3-0.4,0.8-0.4,1.4C64.3,16.8,64.5,17.4,65.1,17.9z
	 M28.9,73.9c-1-0.9-1.8-0.9-2.7,0c-0.8,0.8-0.7,1.7,0.3,2.6c1,0.9,1.9,1,2.7,0.1C30,75.7,29.9,74.8,28.9,73.9z M38.4,76.9
	c-0.4-0.4-1-0.6-1.6-0.6c-0.7,0-1.2,0.1-1.5,0.5c-0.3,0.3-0.4,0.8-0.3,1.5c0.1,0.7,0.3,1.2,0.7,1.6c0.3,0.3,0.8,0.5,1.5,0.5
	c0.7,0.1,1.2-0.1,1.5-0.5c0.3-0.3,0.4-0.8,0.4-1.5C39.1,77.9,38.8,77.3,38.4,76.9z M79.8,41.6c0.9,0.9,1.7,0.9,2.5,0.1
	c0.8-0.8,0.7-1.6-0.2-2.5c-0.9-0.8-1.7-0.8-2.4,0C78.9,40,78.9,40.7,79.8,41.6z M47.2,80.5c-0.8-0.7-1.4-0.7-2-0.1
	c-0.6,0.7-0.6,1.3,0.2,2c0.7,0.7,1.4,0.7,2,0C48,81.8,47.9,81.2,47.2,80.5z M77.3,51.2c0.5,0.5,1.1,0.7,1.9,0.8
	c0.7,0,1.3-0.2,1.8-0.7c0.4-0.4,0.5-1,0.5-1.7c-0.1-0.7-0.4-1.4-0.9-1.9C80,47.3,79.4,47,78.7,47c-0.7,0-1.3,0.2-1.7,0.6
	C75.9,48.8,76,50,77.3,51.2z M53.5,77.2c-0.5-0.4-1-0.6-1.6-0.6c-0.6,0-1.1,0.2-1.5,0.6c-0.3,0.3-0.4,0.8-0.5,1.4
	c0,0.6,0.2,1.2,0.8,1.7c0.4,0.3,0.9,0.6,1.5,0.7c0.6,0.1,1.2-0.1,1.6-0.5c0.3-0.3,0.5-0.8,0.5-1.5C54.3,78.2,54,77.7,53.5,77.2z
	 M85,46.9c0.1-0.1,0.1-0.3,0-0.7c-0.3-0.3-0.6-0.3-0.8,0l0,0.5C84.3,46.8,84.6,46.9,85,46.9z M74.7,58c0,0.7,0.2,1.3,0.7,1.8
	c0.4,0.3,0.9,0.6,1.5,0.7c0.7,0.1,1.2-0.1,1.6-0.6c0.9-1,0.8-2-0.4-3.1c-0.5-0.4-1-0.6-1.6-0.6c-0.6,0-1.1,0.2-1.5,0.6
	C74.9,57,74.7,57.4,74.7,58z M70.3,68.8c-1-0.9-1.9-1-2.7-0.1c-0.8,0.8-0.7,1.7,0.3,2.7c1,0.9,1.8,0.9,2.6,0.1
	C71.3,70.5,71.3,69.7,70.3,68.8z M82.8,55.8c0.1-0.1,0.1-0.3,0.1-0.6c-0.3-0.3-0.6-0.3-0.8,0l0,0.5C82.2,55.8,82.4,55.8,82.8,55.8z
	 M75.1,66.7c-0.5,0-0.8,0-0.9,0c-0.1,0.1-0.1,0.4,0,0.9c0.4,0.2,0.7,0.2,0.9,0.1C75.2,67.4,75.2,67,75.1,66.7z"/>
</svg>
