<?xml version="1.0" encoding="utf-8"?>
<!-- Generator: Adobe Illustrator 25.0.1, SVG Export Plug-In . SVG Version: 6.00 Build 0)  -->
<svg version="1.1" id="Layer_1" xmlns="http://www.w3.org/2000/svg" xmlns:xlink="http://www.w3.org/1999/xlink" x="0px" y="0px"
	 viewBox="0 0 559.6 407.9" style="enable-background:new 0 0 559.6 407.9;" xml:space="preserve">
<style type="text/css">
	.st0{fill:#FFFFFF;}
</style>
<g>
	<polygon class="st0" points="90,369.8 90,360.8 66.8,360.8 66.8,389.1 38.5,389.1 38.5,317.9 114,317.9 114,313.1 33.3,313.1 
		33.3,393.6 71.4,393.6 71.4,365.3 85.5,365.3 85.5,374.8 90,374.8 90,389.2 95.2,389.2 95.2,369.8 	"/>
	<rect x="114" y="317.9" class="st0" width="9.5" height="4.5"/>
	<rect x="137.6" y="365.3" class="st0" width="4.5" height="9.4"/>
	<polygon class="st0" points="118.5,346.4 118.5,351 127.9,351 127.9,322.5 123.5,322.5 123.5,346.4 	"/>
	<polygon class="st0" points="146.7,355.7 142.2,355.7 142.2,365.1 146.7,365.1 	"/>
	<rect x="146.8" y="346.6" class="st0" width="5.3" height="9"/>
	<path class="st0" d="M170.8,369.9v13.9h4.6v-8.9h28.1c0.2,4.7,0.4,9.3,0.6,13.9h4.8v-18.9H170.8z"/>
	<path class="st0" d="M189.4,346.5h5.4c-0.1-4.6-0.3-9.1-0.4-13.7c0-1.9,0-3.8,0-5.6h-9.5l0,13.9h4.5V346.5z"/>
	<polygon class="st0" points="90,341 80.8,341 80.8,346.5 95.2,346.5 95.2,336.6 90,336.6 	"/>
	<polygon class="st0" points="198.9,346.5 194.8,346.5 194.8,355.1 184.8,355.1 184.8,341.1 180.2,341.1 180.2,355 175.5,355.7 
		175.5,360.4 203.4,360.4 203.4,355.2 198.9,355.2 	"/>
	<polygon class="st0" points="166.3,388.7 137.6,388.7 137.6,374.8 132.6,374.8 132.6,379.3 128.1,379.3 128.1,365.2 123.5,365.2 
		123.5,360.6 118.5,360.6 118.5,351.1 104.5,351.1 104.5,360.5 113.8,360.5 113.8,365.2 123.5,365.2 123.5,379.2 128,379.2 
		128,388.8 95.4,389.2 95.4,393.4 170.7,393.4 170.7,383.9 166.3,383.9 	"/>
	<polygon class="st0" points="71.4,332.1 85.3,332.1 85.3,336.5 89.9,336.5 89.9,327.2 66.8,327.2 66.8,350.9 80.8,350.9 
		80.8,346.5 71.4,346.5 	"/>
	<path class="st0" d="M132.6,90h-4.5v4.4h-24v-8.9H104l0,0v-0.1h-4.5v-4.9h-38V66.4h28.3V47.8H61.5v-10h37.9v-9.1h4.6v-0.1l0.1,0.1
		H104v9.1h4.9v-0.1l0.1,0.1H109v9.9h4.6v9.6h4.6v-0.1l0.1,0.1h-0.1v4.5h0l0,0v0v0h5.2v-4.6h-5.2v0.1l-0.1-0.1h0.1v-9.5h-4.6v-10
		h-4.5v0.1l-0.1-0.1h0.1v-9.1h-4.9v0.1l-0.1-0.1h0.1v-4.8H128v4.8h4.2v-9.3H28.7v80.5h103.9V90z M94.8,94.6H33.3V23.8h61.5v9.3H56.9
		v19l28.4,0v9.6H56.9v23.9h37.9V94.6z"/>
	<rect x="152.1" y="336.6" class="st0" width="4.5" height="9.9"/>
	<rect x="227.6" y="346.1" class="st0" width="4.5" height="14.5"/>
	<rect x="232.1" y="360.6" class="st0" width="4.9" height="9.1"/>
	<rect x="132.3" y="28.6" class="st0" width="5.3" height="9.1"/>
	<rect x="137.7" y="37.8" class="st0" width="9.1" height="13.9"/>
	<rect x="237.1" y="369.7" class="st0" width="4.5" height="9.5"/>
	<polygon class="st0" points="166.2,317.9 213.4,317.9 213.4,313.1 161.3,313.1 161.3,327 166.2,327 	"/>
	<rect x="223" y="336.6" class="st0" width="4.5" height="9.5"/>
	<rect x="156.7" y="327.1" class="st0" width="4.5" height="9.4"/>
	<rect x="218" y="327.1" class="st0" width="5" height="9.5"/>
	<rect x="213.5" y="317.9" class="st0" width="4.5" height="9.1"/>
	<polygon class="st0" points="445.1,317.9 436.1,317.9 436.1,322.4 445.1,321.9 	"/>
	<rect x="146.7" y="28.6" class="st0" width="5" height="9.1"/>
	<rect x="422" y="326.6" class="st0" width="4.4" height="14.4"/>
	<rect x="426.5" y="322.5" class="st0" width="9.5" height="4.1"/>
	<rect x="511.5" y="317.5" class="st0" width="9.9" height="4.5"/>
	<rect x="526" y="326.6" class="st0" width="4.5" height="19.4"/>
	<rect x="521.4" y="322.1" class="st0" width="4.6" height="4.5"/>
	<polygon class="st0" points="241.7,388.8 208.9,388.8 208.9,393.2 246.1,393.2 246.1,379.3 241.7,379.3 	"/>
	<polygon class="st0" points="464.6,332.1 487.7,332.1 487.7,341.1 492.8,341.1 492.8,326.8 459.3,326.8 459.3,341.1 464.6,341.1 	
		"/>
	<polygon class="st0" points="487.9,369.2 478.8,369.2 478.8,374.5 473.8,374.5 473.8,369.3 464.7,369.3 464.7,360.2 459.3,360.2 
		459.3,374.8 469.3,374.8 469.3,379.1 483.3,379.1 483.3,374.6 492.7,374.6 492.7,364.8 487.9,364.8 	"/>
	<polygon class="st0" points="492.8,364.7 497.2,364.7 497.2,341.1 492.8,341.1 	"/>
	<polygon class="st0" points="511.5,312.7 445.2,312.7 445.2,317.9 511.5,317.4 	"/>
	<polygon class="st0" points="526,374.3 521.4,374.3 521.4,378.9 511.9,378.9 511.9,383.4 502,383.4 502,388.8 450.5,388.8 
		449.9,383.8 436,383.8 436,379.2 431,379.2 431,374.7 426.6,374.7 426.6,379.2 431.1,379.3 431.1,383.8 436.1,383.8 436.1,388.8 
		450.6,388.8 450.6,393.3 501.9,393.3 501.9,388.8 511.9,388.8 511.9,383.4 521.4,383.4 521.4,378.9 526,378.9 526,374.3 
		530.5,374.3 530.5,350.7 526,350.7 	"/>
	<rect x="454.8" y="341.1" class="st0" width="4.4" height="19"/>
	<rect x="422" y="360.2" class="st0" width="4.4" height="14.5"/>
	<rect x="417.1" y="341.2" class="st0" width="4.8" height="19"/>
	<polygon class="st0" points="256.3,317.9 331.5,317.9 331.5,312.8 251.7,312.8 251.7,393.2 308.3,393.2 308.3,388.9 256.3,388.9 	
		"/>
	<rect x="308.4" y="383.9" class="st0" width="28.1" height="4.9"/>
	<rect x="350.7" y="327.1" class="st0" width="4.4" height="9.5"/>
	<rect x="345.7" y="322.5" class="st0" width="4.8" height="4.5"/>
	<polygon class="st0" points="336.6,383.8 345.6,383.8 345.6,379.3 336.6,379.3 	"/>
	<rect x="331.6" y="317.9" class="st0" width="13.9" height="4.5"/>
	<path class="st0" d="M355.7,364.7h3.9v-28.1h-4.3C355.4,346,355.5,355.3,355.7,364.7z"/>
	<path class="st0" d="M369.8,393.2h37.9v-80.6h-37.9V393.2z M374.4,318.1h27.9v70.6h-27.9V318.1z"/>
	<rect x="345.7" y="374.8" class="st0" width="5.3" height="4.5"/>
	<polygon class="st0" points="317.5,331.9 312.9,331.9 312.9,327.1 284.5,327.1 284.5,374.5 317.5,374.5 317.5,365.2 317.5,365.2 
		317.5,365.1 317.5,365.1 317.5,365.1 313,365.1 313,369.6 289,369.6 289,332.2 308.3,332.2 308.3,336.5 312.9,336.5 312.9,341 
		317.5,341 317.5,365.1 317.5,365.1 317.5,365.2 322.3,365.2 322.3,336.5 317.5,336.5 	"/>
	<rect x="351.1" y="364.8" class="st0" width="4.4" height="9.9"/>
	<rect x="146.8" y="75.9" class="st0" width="4.9" height="14"/>
	<rect x="274.4" y="75.9" class="st0" width="5.3" height="9.5"/>
	<rect x="345.7" y="90" class="st0" width="5" height="4.4"/>
	<rect x="289" y="94.6" class="st0" width="28.1" height="4.9"/>
	<rect x="284.4" y="90" class="st0" width="4.4" height="4.5"/>
	<rect x="279.8" y="85.4" class="st0" width="4.5" height="4.5"/>
	<rect x="350.7" y="85.4" class="st0" width="4.5" height="4.5"/>
	<path class="st0" d="M322.5,99.4h23.2v-4.9h-23.7C322.1,96.3,322.3,97.9,322.5,99.4z"/>
	<rect x="279.8" y="28.7" class="st0" width="4.5" height="4.5"/>
	<rect x="341.1" y="23.6" class="st0" width="9.5" height="4.9"/>
	<rect x="355.2" y="33.2" class="st0" width="4.5" height="9.5"/>
	<rect x="350.7" y="28.6" class="st0" width="4.5" height="4.5"/>
	<rect x="355.2" y="71.3" class="st0" width="4.5" height="14"/>
	<polygon class="st0" points="421.6,94.5 421.6,99.3 454.6,99.3 454.6,90 450.2,90 450.2,94.5 	"/>
	<polygon class="st0" points="445.1,75.8 445.1,89.9 450.1,89.9 450.1,71.3 445.1,71.3 445.1,65.9 440.6,65.9 440.6,75.8 	"/>
	<path class="st0" d="M450.2,56.8V42.8h28.3v56.5H507V42.6h28V18.8h-84.9v9.9h-5.3l0.4,28.1H450.2z M454.8,23.4H530v14.1h-28.1v56.9
		H483V37.8h-28.2V23.4z"/>
	<polygon class="st0" points="436.1,61.3 426.2,61.3 426.2,65.9 440.6,65.9 440.6,61.3 445.1,61.3 445.1,56.8 436.1,56.8 	"/>
	<path class="st0" d="M421.4,33.2H398v23.4h23.4V33.2z M416.4,51.7h-13.8V37.8h13.8V51.7z"/>
	<rect x="436.1" y="23.2" class="st0" width="8.7" height="5.3"/>
	<rect x="293.9" y="19.2" class="st0" width="47.2" height="4.4"/>
	<rect x="359.8" y="42.7" class="st0" width="4.8" height="28.5"/>
	<rect x="317.1" y="99.6" class="st0" width="5.3" height="4.4"/>
	<path class="st0" d="M402.5,71.4h9.6v4.5h4.5v18.5h4.9V71.3h-4.9v-5.3H398v28.3h-24V23.8c2.5-0.2,5.1-0.6,7.6-0.6
		c18.1-0.1,36.2-0.1,54.4-0.1V19h-66.6v80.3h33.1V71.4z"/>
	<rect x="260.3" y="28.6" class="st0" width="4.9" height="9.1"/>
	<polygon class="st0" points="156.3,94.3 156.3,90 151.8,90 151.8,99.6 223,99.6 223,75.8 255.7,75.8 255.7,71.3 217.7,71.3 
		217.7,94.4 194.5,94.4 194.5,23.6 251.1,23.6 251.1,19.2 189.3,19.2 189.3,94.4 184.8,94.4 184.8,85.4 180.3,85.4 180.3,94.3 	"/>
	<rect x="274.4" y="33.2" class="st0" width="5.3" height="9.4"/>
	<rect x="174.9" y="75.9" class="st0" width="5.3" height="9.5"/>
	<rect x="170.4" y="66.3" class="st0" width="4.5" height="9.5"/>
	<polygon class="st0" points="156.2,23.8 180.4,23.8 180.4,28.6 184.7,28.6 184.7,19.2 151.7,19.2 151.7,28.6 156.2,28.6 	"/>
	<polygon class="st0" points="260.2,28.6 260.2,23.6 251.2,23.6 251.2,28.6 	"/>
	<rect x="165.9" y="47.3" class="st0" width="4.5" height="9.9"/>
	<rect x="170.4" y="37.8" class="st0" width="4.5" height="9.4"/>
	<rect x="175" y="28.6" class="st0" width="5.3" height="9.1"/>
	<polygon class="st0" points="260.4,51.8 260.4,61.7 255.8,61.7 255.8,71.3 260.4,71.3 260.4,66.3 265.3,66.3 265.3,57.3 
		269.9,57.3 269.9,75.8 274.4,75.8 274.4,42.7 269.8,42.7 269.8,37.7 265.3,37.7 265.3,51.8 	"/>
	<rect x="165.8" y="61.8" class="st0" width="4.5" height="4.5"/>
	<rect x="161" y="57.2" class="st0" width="4.8" height="4.5"/>
	<path class="st0" d="M241.5,37.7H237v-4.4h-19.3V57h23.8V37.7z M236.9,51.8c-4.4,0-8.8,0-13.1-0.1c-0.4,0-1.1-1-1.2-1.5
		c-0.1-4.1,0-8.1,0-12.5h9.1v4.8h5.3V51.8z"/>
	<rect x="530.6" y="346.1" class="st0" width="4.8" height="4.5"/>
	<rect x="298.5" y="57.2" class="st0" width="4.5" height="8.6"/>
	<polygon class="st0" points="307.9,42.7 312.5,42.7 312.5,37.9 322,37.9 322,42.7 326.6,42.7 326.6,33.3 307.9,33.3 307.9,37.8 
		303,37.8 303,57.2 307.9,57.2 	"/>
	<polygon class="st0" points="336.4,65.9 336.4,51.9 331.2,51.8 331.2,65.9 	"/>
	<polygon class="st0" points="326.7,75.8 322.2,75.8 322.2,80.3 312.6,80.3 312.6,75.9 308.1,75.9 308.1,65.9 303,65.9 303,80.5 
		308,80.5 308,85.3 326.6,85.3 326.6,80.3 331.1,80.3 331.1,65.9 326.7,65.9 	"/>
	<rect x="326.7" y="42.7" class="st0" width="4.5" height="9.1"/>
	<polygon class="st0" points="137.6,61.9 137.6,80.4 142.3,80.4 142.3,75.8 146.7,75.8 146.7,61.9 	"/>
	<rect x="132.6" y="80.4" class="st0" width="5" height="9.5"/>
	<polygon class="st0" points="113.5,71.4 113.5,71.3 109,71.3 109,75.8 109,75.8 109,75.9 109.1,75.9 109,75.9 113.6,75.9 
		113.6,71.3 113.6,71.3 	"/>
	<polygon class="st0" points="109,75.9 109,75.9 109,75.9 109,75.9 109,75.9 104.1,75.9 104.1,85.3 104.1,85.3 104.1,85.4 
		104.1,85.4 104.1,85.5 109,85.5 	"/>
	<polygon class="st0" points="113.5,71.3 113.5,71.3 113.6,71.3 113.6,71.3 113.6,71.3 118.1,71.3 118.1,61.8 118.1,61.8 
		118.1,61.8 118.1,61.8 113.5,61.8 	"/>
	<rect x="284.4" y="23.7" class="st0" width="9.5" height="4.9"/>
	<polygon class="st0" points="450.2,255.8 450.2,255.8 450.2,260.3 454.7,260.3 454.7,255.8 450.2,255.7 	"/>
	<rect x="90.4" y="156.7" class="st0" width="4.5" height="4.5"/>
	<path class="st0" d="M440.6,260.3L440.6,260.3L440.6,260.3L440.6,260.3L440.6,260.3l-4.6-0.1v-4.5h-4.7v4.6h-14v4.5h-2.9
		c-66.9,0-133.8,0-200.7,0c-11.1,0-22.3,0.3-33.4,0.4v4.9h-9.5v4.5h4.7v4.6h-28v4.9h-5.4l0,9.2h5.5v-4.6h4.5v-4.5h259.9v-5.4h14.5
		v-4.6h9.6v-4.5h9.4v-4.9h-4.9V260.3z"/>
	<polygon class="st0" points="445.6,260.3 445.5,260.3 445.6,264.8 450.1,264.8 450.1,260.3 445.6,260.3 	"/>
	<path class="st0" d="M99.5,156.6L99.5,156.6c0-1.8,0-3.6,0-5.3H95v5.3L99.5,156.6L99.5,156.6z"/>
	<rect x="99.5" y="147.2" class="st0" width="5.3" height="4.1"/>
	<rect x="460.1" y="246.2" class="st0" width="4.5" height="4.5"/>
	<polygon class="st0" points="99.5,156.7 99.5,161.2 99.5,161.2 99.5,161.2 99.5,161.2 99.6,161.2 99.5,161.2 99.5,161.3 
		104.8,161.3 104.8,161.2 104.9,161.2 104.9,156.7 104.8,156.7 104.8,156.6 99.5,156.6 	"/>
	<rect x="80.8" y="199.4" class="st0" width="4.5" height="9.1"/>
	<polygon class="st0" points="454.7,250.8 454.7,250.7 454.7,250.7 454.7,246.2 454.7,246.2 454.7,246.2 450.2,246.2 450.2,246.2 
		450.1,246.2 450.1,250.7 450.2,250.7 450.1,250.8 450.1,250.8 454.6,250.8 454.6,250.8 454.7,250.8 454.6,250.8 454.7,255.7 
		460,255.7 460,250.8 454.7,250.7 	"/>
	<polygon class="st0" points="62.1,288.9 62.1,284.4 66.7,284.4 66.7,274.9 71.2,274.9 71.2,265.3 76.2,265.3 76.2,256.2 
		90.2,256.2 90.2,250.9 161.5,250.9 161.5,260.6 156.4,260.6 156.4,265.2 180.3,265.2 180.3,260.6 166.1,260.6 166.1,246.3 
		85.3,246.3 85.3,250.9 71.2,250.9 71.2,256.2 38,256.2 38,265.3 33.6,265.3 33.6,270.1 33.7,270.1 33.7,270.2 38.1,270.2 
		38.1,274.8 38.2,274.8 38.2,274.8 38.2,274.8 38.2,274.8 42.7,274.8 42.7,265.4 66.6,265.4 66.6,270.2 62.2,270.2 62.2,279.3 
		57.3,279.3 57.3,284.2 38.2,284.2 38.2,274.8 38.1,274.8 38.1,274.8 33.7,274.8 33.7,270.2 33.6,270.2 33.6,270.2 33.6,270.2 
		33.6,270.1 28.6,270.1 28.6,279.4 24.1,279.4 24.1,293.4 52.7,293.4 52.7,298.8 57.2,298.8 57.2,288.9 	"/>
	<path class="st0" d="M445.5,250.8L445.5,250.8L445.5,250.8L445.5,250.8C445.5,250.7,445.5,250.8,445.5,250.8z"/>
	<rect x="450.2" y="217.6" class="st0" width="4.5" height="4.5"/>
	<path class="st0" d="M99.5,161.3L99.5,161.3L99.5,161.3L99.5,161.3L99.5,161.3l-4.6,0v4.4h-4.6v-4.4h-5v9.5h-4.5v9.1h-4.4v19.4h4.4
		v-5.3h4.6c0,0,0,0,0-0.1l0.1,0.1l-0.1-0.1h0.1v-14h4.7v14h-4.7v0.1h-0.1c0,1.8,0,3.5,0,5.3h4.9v4.5h4.4v4.7h-9.4v4.7h360.2v4.3h4.5
		v-4.4h9.4v9h-4.8v14.1h-4.5v5.3h4.5v4.6h0.1v0.1l5.3-0.1v-4.4h4.6l0,4.4h4.2v-10h5.2v-32.6h-9.7l0,0l0,0l0,0l-0.1,0h0.1l-0.2-4.4
		H114v-5.3H99.6v-23.2h5.2v-4.9h-5.3V161.3z M459.8,203.6h4.5c0,1.5,0,2.9-0.1,4.4h0.1v0.1h4.4v4.8h-4.4v-4.8h0l0,0.1c0,0,0,0,0-0.1
		h0l0,0c0,0,0-0.1,0-0.1h-4.4V203.6z M445.7,203.5h4.3v4.4h-4.3V203.5z"/>
	<polygon class="st0" points="440.6,255.7 440.6,255.8 440.6,255.8 440.6,260.3 440.6,260.3 440.6,260.3 440.6,260.3 445.5,260.3 
		445.5,260.3 445.6,260.3 445.6,255.8 450.1,255.8 450.1,255.7 450.1,250.8 450,250.8 450.1,250.8 450.1,250.7 445.6,250.7 
		445.6,250.8 445.6,255.7 440.6,255.7 440.6,255.7 440.6,255.7 440.6,255.7 440.6,250.8 436,250.8 436,255.7 440.6,255.8 	"/>
	<path class="st0" d="M445.5,250.7L445.5,250.7c0-1.5,0-3,0-4.5h-5v4.5L445.5,250.7L445.5,250.7z"/>
	<polygon class="st0" points="450.1,246.2 450.2,246.2 450.1,241.7 445.6,241.7 445.6,246.2 450.1,246.2 	"/>
	<path class="st0" d="M57.2,298.9v4.2h80.4v-4.6l-63.4,0.4C68.5,298.9,62.9,298.9,57.2,298.9z"/>
	
		<rect x="450.1" y="255.7" transform="matrix(1.143376e-02 -0.9999 0.9999 1.143376e-02 189.2893 702.9268)" class="st0" width="0.1" height="0.1"/>
	<rect x="137.6" y="293.5" class="st0" width="4.5" height="4.9"/>
	<polygon class="st0" points="104.9,161.3 104.8,161.3 104.9,165.7 109.4,165.7 109.4,161.3 104.9,161.2 	"/>
	<polygon class="st0" points="502.3,108.7 407.5,108.7 407.5,113.5 490.1,113.5 492.8,113.5 492.8,122.6 492.8,122.6 497.3,122.6 
		497.3,118.2 525.5,118.2 525.6,127.6 531,127.6 531,132.2 535.6,132.2 535.6,122.6 540,122.6 540,113.5 502.3,113.5 	"/>
	<polygon class="st0" points="478.8,142.2 478.7,142.2 478.7,142.2 478.7,142.2 478.7,142.2 474.2,142.2 474.2,151.2 474.2,151.2 
		474.2,151.3 478.8,151.3 	"/>
	<polygon class="st0" points="525.5,127.7 521.1,127.7 521.1,136.7 516.5,136.7 516.5,142.1 521,142.1 521,146.7 525.7,146.7 
		525.7,136.7 531,136.7 531,132.2 525.5,132.2 	"/>
	<rect x="492.8" y="122.6" class="st0" width="0" height="0.1"/>
	<polygon class="st0" points="388.7,146.8 379.4,146.8 379.4,137.3 383.8,137.3 383.8,132.7 388.7,132.7 388.7,128.1 407.4,128.1 
		407.4,113.6 402.8,113.6 402.8,122.8 383.8,122.8 383.8,128.1 137.5,128.1 137.5,132.7 123.5,132.7 123.5,137.3 113.5,137.3 
		113.5,142.6 104.9,142.6 104.9,147.1 108.9,146.7 108.9,151.3 104.9,151.3 104.8,156.6 104.9,156.6 104.9,156.7 109.5,156.7 
		109.5,161.2 113.6,161.2 113.6,156.6 123.5,156.6 123.5,151.3 123.5,151.3 123.5,151.3 119.1,151.3 119.1,146.9 123.5,146.9 
		123.5,151.3 123.5,151.3 123.5,151.3 133.2,151.3 133.2,146.9 374.8,146.9 374.8,151.3 383.8,151.3 383.8,156.2 388.7,156.2 	"/>
	<polygon class="st0" points="516.4,142.2 511.5,142.2 511.5,151.2 507,151.2 507,156.1 474.2,156.1 474.2,151.3 474.2,151.3 
		474.2,151.3 474.2,151.3 474.1,151.3 474.2,151.2 468.8,151.2 468.8,160.7 383.8,160.7 383.8,156.3 379.4,156.3 379.4,165.3 
		474.2,165.3 474.2,160.8 516.5,160.8 516.5,156.3 521,156.3 521,146.8 516.4,146.8 	"/>
	<polygon class="st0" points="483.3,136.8 483.4,136.8 483.3,136.8 488.2,136.8 488.2,128.1 488.2,128.1 488.2,128.1 488.2,128.1 
		483.3,128.1 483.3,136.7 483.3,136.7 	"/>
	<polygon class="st0" points="488.2,128.1 488.3,128.1 492.8,128.1 492.8,122.7 492.8,122.7 488.2,122.7 488.2,128 488.2,128 	"/>
	<polygon class="st0" points="478.8,142.2 478.8,142.2 478.8,142.2 483.3,142.2 483.3,136.8 483.3,136.8 483.3,136.8 483.2,136.8 
		483.3,136.8 478.7,136.8 478.7,142.1 478.8,142.1 	"/>
	<path class="st0" d="M99.5,156.6C99.5,156.7,99.5,156.7,99.5,156.6L99.5,156.6L99.5,156.6L99.5,156.6z"/>
	<polygon points="123.5,151.3 123.5,151.3 123.5,151.3 	"/>
	<polygon points="33.6,270.2 33.6,270.2 33.6,270.2 	"/>
	<path d="M559.5,267.5c-0.1-78.6-0.3-157.3-0.4-235.9c0-4.3-0.7-8.6-2.2-12.6c-1.4-3.6-3.5-6.9-6.3-9.7c-3-3-6.5-5-10-7.1
		c-1.8-0.9-3.6-1.6-5.6-2.2H262c-0.8,0.2-1.7,0.3-2.5,0.4c-77.2,0-154.5,0-231.7,0c-3.6,0-7.1,0.9-10.2,2.8
		c-2.2,1.3-4.7,2.1-6.7,3.5C8.5,8.5,6,10.4,4.6,13.2L0,22.4V274c0.2,0.7,0.3,1.5,0.4,2.3c0,35.2,0,70.4,0,105.7
		c0,3.4,0.5,6.7,2.8,9.6c1.3,1.6,2.1,3.8,3.5,5.4c1.6,1.8,3.4,3.4,5.3,4.8c3.3,2.4,7.1,4.1,11.2,5c1.9,0.6,4,1,6,1.2
		c36.5,0,73,0,109.5,0s73,0,109.5,0c94.4-0.1,188.8-0.3,283.2-0.4c2.8,0,5.2-1.1,7.6-2.3c2.5-1,5-2.2,7.4-3.6
		c3.1-1.9,5.7-4.4,7.6-7.5c1.8-3.2,3.2-6.5,4.2-10c0.3-1,0.4-2,0.5-3c0.5-2.8,0.8-5.7,0.9-8.5c0-17.5,0-35,0-52.5
		S559.6,285,559.5,267.5z M369.4,19H436v4.2c0,0,0,0,0.1,0v0.1h8.7v5.3h0l0,0.1h5.3v-9.9H535v23.8h-28v56.8h-28.5V42.8h-28.3v13.9
		h-5.1l0,0.1h-0.1v4.5h-4.6v4.6h0.1v0.1h4.5v5.3h5v18.6h0V90h4.4v9.3h-33v-4.8h-0.1v-0.1h-4.9V75.9h-4.5v-4.5h-9.6v27.9h-33.1V19z
		 M28.7,19.2h103.4v9.3h0.1v0.1h5.3v9.1h0.1v0.1h9.1v-0.1v-9.1h5v-0.1v-9.4h33v9.4h-4.3v0.1h-0.1v9.1H175v0.1h-0.1v9.4h-4.5v0.1
		h-0.1v9.9h-4.5v0.1h-0.1v4.5h0.1v0h4.5v4.5h0.1v0.1h4.5v9.5h0.1v0.1h5.3v9.5h0.1v0h4.5v9h4.5V19.2h61.8v4.4h0.1v0h9v4.9l0.1,0v0.1
		h4.9v9.1h0.1v0h4.4v5h4.6v-0.1h0v-9.4h5.3v-0.1h0.1v-4.5h4.5v-0.1h0.1v-4.9h9.5v-0.1h0.1v-4.4h47.2v4.4h0v0.1h9.5v4.9h0v0.1h4.5
		v4.5h0v0.1h4.5v9.5h0v0.1h4.8v28.5h-4.8v0.1h0v14h-4.5v0.1h0v4.5h-4.5V90h0v4.4h-5v0.1h0v4.9h-23.2c0,0,0,0.1,0,0.1h0v4.4h-5.3
		v-4.4H317v-0.1H289v-4.9h-0.1v-0.1h-4.4V90h-0.1v-0.1h-4.5v-4.5h-0.1v-0.1h-5.3v-9.5h-0.1v-0.1h-4.5V57.3h-4.6v8.9h-4.9v5h-4.6v0.1
		h-0.1v4.5H223v23.8h-71.2V90h-0.1v-0.1h-4.9v-14h-0.1v-0.1h-4.4v4.6h-4.7v0.1v9.5h-5V90v9.8H28.7V19.2z M246.1,393.2h-37.1v-4.4
		h-0.1v-0.1h-4.8c-0.2-4.6-0.4-9.2-0.6-13.9h-28.1v8.9h-4.6v0.1h0v9.5H95.4v-4.2l-0.1,0v-0.1H90v-14.4h-4.5v-9.5H71.4v28.3H33.3
		v-80.5H114v4.8v0h9.5v4.5h0.1v0.1h4.4V351h-9.4v0.1h0v9.5h5v4.7h4.6v14.1h4.5v-4.6h5v-0.1h0.1v-9.4h4.5v-0.1h0.1l0-9.4h4.5v-0.1
		h0.1v-9h5.3v-0.1h0v-9.9h4.5v-0.1h0.1v-9.4h4.5V327h0.1v-13.9h52.2v4.8h0v0h4.5v9.1v0.1h5v9.5v0h4.5v9.5h0.1v0.1h4.5v14.5h0.1v0
		h4.9v9.1h0.1v0h4.5v9.5h0.1v0.1h4.4V393.2z M359.6,364.7h-3.9c0,0,0,0,0,0.1h-0.1v9.9h-4.4v0.1H351v4.5h-5.3v0.1h-0.1l0,4.4h-9v0.1
		h-0.1v4.9h-28.1v0.1h-0.1v4.3h-56.6v-80.4h79.8v5h0.1v0h13.9v4.5h0.2v0h4.8v4.5h0.2v0.1h4.4v9.5h0.2c0,0,0,0,0,0.1h4.3V364.7z
		 M407.7,393.2h-37.9v-80.6h37.9V393.2z M535.4,350.6h-4.8v0h0v23.7H526v4.6h-4.6v4.6h-9.5v5.4h-10v4.5h-51.3v-4.5h-14.5v-5h-5v-4.6
		l-4.5,0v-4.5h-0.1v0H422v-14.5h-0.1v-0.1h-4.8v-19h4.8v-0.1h0.1v-14.4h4.4v-0.1h0.1v-4.1h9.5v-0.1l0.1,0v-4.5h9.1v-0.1l0.1,0v-5.2
		h66.3v4.8l0,0v0.1h9.9v4.5h0v0.1h4.6v4.5v0.1h4.5V346h0.1v0.1h4.8V350.6z M540,122.6h-4.3v9.6H531v0.1h0v4.5h-5.3v10H521v0v9.5
		h-4.5v4.5h-42.3v4.5h-94.8v-9h4.4v-0.1h0.1v-4.9h-9.1v-4.4H133.2v4.4h-9.6v5.3h-9.9v4.6h-4.2v0.1l-0.1,0v4.5h-4.5l0,0.1h-0.1v4.9
		h-5.2v23.2H114v5.3h350.1l0.2,4.4h9.7v32.6h-5.2v10h-4.2l0,0.1h-0.1v4.5h-4.5v0.1l-0.1,0v4.9h-5.3l0,0.1l0,0v4.5h-4.5l0,0.1l0,0
		l0,4.5h-4.5l0,0.1h-0.1v4.9h-9.4v4.5h-9.6v4.6h-14.5v5.4H152.2v4.5h-4.5v4.6h-5.5l0,0.1h0v4.9h-4.5v0.1l-0.1,0v4.6H57.2v-4.2
		c0,0-0.1,0-0.1,0v-0.1h-4.5v-5.3H24.1v-14h4.4v-9.3h5v-4.8H38v-9.1h33.2v-5.3h14.1v-4.5h80.8v14.3h14.1v4.6h0v0.1
		c11.1-0.2,22.3-0.4,33.4-0.4c66.9,0,133.8,0,200.7,0h2.9v-4.5h14v-4.6h4.7v-0.1l0,0v-4.9h4.5l0-0.1l0,0v-4.5h5c0,0,0,0,0-0.1l0,0
		v-4.5h4.5l0-0.1h0.1v-5.3h4.5v-14.1h-0.1v-0.1h-4.5v-4.5h0v-0.1h-4.5v-4.3H85.4v-4.7h-0.1v-0.1h-4.5v-9.1h-0.1v-0.1h-4.4v-19.4h4.4
		v-9.1h4.5v-9.5h5v-0.1h0v-4.5h4.5v-0.1l0.1,0v-5.3h4.5c0,0,0,0,0-0.1h0v-4.1h5.3v-0.1l0,0v-4.5h8.6v-5.3h10v-4.6h14v-4.5h246.2
		v-5.4h19v-9.2h4.6v-0.1h0.1v-4.8h94.8v4.7H540V122.6z"/>
	<polygon points="33.7,270.1 33.6,270.1 33.6,270.2 	"/>
	<polygon points="464.3,203.6 464.3,203.6 464.3,203.6 	"/>
	<polygon points="464.3,203.6 464.3,203.6 464.3,203.5 464.2,203.5 	"/>
	<polygon points="85.4,194 85.5,194.1 85.5,194 	"/>
	<rect x="85.5" y="180" width="4.7" height="14"/>
	<polygon points="459.5,213.2 450.1,213.2 450.1,217.6 450.1,217.6 450.2,217.6 454.7,217.6 454.7,222.1 454.7,222.2 454.7,222.2 
		459.5,222.2 	"/>
	<path d="M94.8,203.8h-4.4v-4.5h-4.9c0,0,0,0,0,0.1h-0.1v9.1v0.1h0.1h9.4V203.8z"/>
	<path d="M85.4,194C85.4,194,85.4,194,85.4,194L85.4,194L85.4,194z"/>
	<path d="M85.4,199.4C85.4,199.4,85.4,199.4,85.4,199.4c0-1.8,0-3.6,0-5.3h-4.6v5.3v0.1h0.1H85.4L85.4,199.4z"/>
	<polygon points="99.5,161.2 99.5,161.2 99.5,161.2 	"/>
	<polygon points="104.8,161.3 104.9,161.3 104.8,161.2 	"/>
	<polygon points="99.5,161.3 99.5,161.3 99.5,161.2 	"/>
	<polygon points="99.5,161.3 99.5,165.8 104.8,165.8 104.9,165.8 104.9,165.7 104.8,161.3 	"/>
	<polygon points="99.5,161.3 99.5,161.3 99.5,161.2 	"/>
	<polygon points="460,246.2 460,246.2 454.7,246.2 454.7,250.7 460,250.8 460.1,250.8 460.1,250.7 460.1,246.2 	"/>
	<polygon points="454.7,246.2 454.7,246.2 454.7,246.2 	"/>
	<polygon points="454.7,250.8 454.7,250.7 454.7,250.7 	"/>
	<rect x="464.2" y="208.1" width="4.4" height="4.8"/>
	<polygon points="464.2,208.1 464.2,208 464.2,208.1 	"/>
	<polygon points="464.2,208.1 464.2,208.1 464.2,208.1 	"/>
	<polygon points="94.9,161.2 94.9,161.3 99.5,161.2 99.5,156.7 99.5,156.7 95,156.6 94.9,156.6 94.9,156.7 94.9,161.2 	"/>
	<polygon points="99.6,161.2 99.5,161.2 99.5,161.2 99.5,161.2 99.5,161.2 99.5,161.3 99.5,161.2 	"/>
	<polygon points="94.9,165.6 94.9,161.3 94.9,161.2 94.9,161.2 90.4,161.2 90.3,161.2 90.3,161.3 90.3,165.6 	"/>
	<rect x="445.7" y="203.5" width="4.3" height="4.4"/>
	<polygon points="460,241.8 460,246.2 460,246.2 460.1,246.2 464.6,246.2 464.7,246.2 464.7,246.1 464.6,241.8 	"/>
	<path d="M464.3,203.6h-4.5v4.4h4.4C464.3,206.5,464.3,205.1,464.3,203.6z"/>
	<path d="M464.2,208.1C464.2,208.1,464.2,208.1,464.2,208.1L464.2,208.1L464.2,208.1L464.2,208.1C464.2,208,464.2,208.1,464.2,208.1
		C464.2,208.1,464.2,208.1,464.2,208.1z"/>
	<polygon points="450.2,246.2 450.2,246.2 450.1,246.2 	"/>
	<polygon points="454.7,246.2 454.7,246.2 454.7,246.2 	"/>
	<polygon points="454.7,246.2 454.7,241.6 450.2,241.6 450.1,241.6 450.1,241.7 450.2,246.2 	"/>
	<polygon points="488.2,128.1 488.2,128.1 488.2,128.1 488.2,128.1 	"/>
	<polygon points="483.3,136.8 483.3,136.8 483.3,136.8 483.4,136.8 	"/>
	<polygon points="483.3,136.8 483.3,136.8 483.3,136.8 483.3,136.8 	"/>
	<polygon points="468.8,160.7 468.8,151.2 474.2,151.2 474.2,151.2 474.2,142.2 478.7,142.2 478.7,142.1 478.7,136.8 483.3,136.8 
		483.3,136.7 483.3,128.1 488.2,128.1 488.2,128 488.2,122.7 492.8,122.7 492.8,122.6 492.8,113.5 490.1,113.5 407.5,113.5 
		407.4,113.5 407.4,113.6 407.4,128.1 388.7,128.1 388.7,132.7 383.8,132.7 383.8,137.3 379.4,137.3 379.4,146.8 388.7,146.8 
		388.7,156.2 383.8,156.2 383.8,156.2 383.8,156.3 383.8,160.7 	"/>
	<polygon points="478.8,142.2 478.8,142.2 478.8,142.2 478.8,142.2 	"/>
	<polygon points="478.7,142.2 478.8,142.2 478.8,142.2 478.7,142.2 	"/>
	<polygon points="474.2,151.3 474.2,151.3 474.2,151.3 	"/>
	<path d="M99.5,156.6L99.5,156.6C99.5,156.7,99.5,156.7,99.5,156.6L99.5,156.6z"/>
	<polygon points="104.9,156.6 104.8,156.6 104.8,156.7 	"/>
	<path d="M99.5,156.6h5.3l0.1-5.3h-0.1v0h-5.3h0c0,0,0,0,0,0.1C99.5,153.1,99.5,154.9,99.5,156.6L99.5,156.6z"/>
	<rect x="119.1" y="146.9" width="4.4" height="4.4"/>
	<polygon points="123.5,151.3 123.5,151.3 123.5,151.3 	"/>
	<polygon points="104.9,156.7 104.9,156.6 104.8,156.7 	"/>
	<polygon points="104.9,156.7 104.9,161.2 109.4,161.3 109.5,161.3 109.5,161.2 109.5,156.7 	"/>
	<polygon points="104.9,161.3 104.9,161.2 104.8,161.2 	"/>
	<polygon points="104.8,151.3 104.9,151.3 108.9,151.3 108.9,146.7 104.9,147.1 104.8,147.1 104.8,147.2 104.8,151.3 	"/>
	<path d="M147.6,284.2v-4.9h28v-4.6h-4.7v-4.5h9.5v-4.9v-0.1h0h-23.9v-4.6h5.1v-9.7H90.2v5.3h-14v9.1h-5v9.6h-4.5v9.6h-4.6v4.5h-4.9
		v9.9v0.1c0,0,0.1,0,0.1,0c5.7,0,11.3,0,16.9,0l63.4-0.4l0.1,0v-0.1v-4.9h4.5h0l0-0.1l0-9.2H147.6z"/>
	<polygon points="440.6,260.3 440.6,260.3 440.6,260.3 	"/>
	<polygon points="440.5,260.3 440.6,260.3 440.6,260.3 	"/>
	<polygon points="445.5,260.3 440.6,260.3 440.6,264.9 445.5,264.9 445.6,264.9 445.6,264.8 445.5,260.3 	"/>
	<polygon points="440.6,260.3 440.6,255.8 436,255.7 436,255.7 436,255.8 436,260.3 	"/>
	<polygon points="440.6,260.3 440.6,260.3 440.6,260.3 440.6,260.3 440.6,260.3 	"/>
	<polygon points="440.6,255.7 440.6,255.8 440.6,255.8 	"/>
	<polygon points="113.6,71.3 113.6,71.3 113.6,71.3 	"/>
	<polygon points="104.1,85.4 104.1,85.5 104.1,85.4 104,85.5 104.1,85.5 104.1,85.4 	"/>
	<polygon points="118.1,61.8 118.1,61.8 118.1,61.8 	"/>
	<polygon points="128,23.8 104.1,23.8 104.1,28.6 109.1,28.6 109.1,37.6 113.6,37.6 113.6,47.6 118.2,47.6 118.2,57.2 123.3,57.2 
		123.3,61.8 118.1,61.8 118.1,71.3 113.6,71.3 113.6,75.9 109,75.9 109,75.9 109,85.5 104.1,85.5 104.1,94.4 128.1,94.4 128.1,90 
		132.6,90 132.6,89.9 132.6,80.4 137.6,80.4 137.6,80.4 137.6,61.9 146.7,61.9 146.7,75.8 146.7,75.9 146.8,75.9 151.7,75.9 
		151.7,89.9 151.7,90 151.8,90 156.3,90 156.3,94.3 180.3,94.3 180.3,85.4 180.3,85.3 180.3,85.3 174.9,85.3 174.9,75.9 174.9,75.8 
		174.9,75.8 170.4,75.8 170.4,66.3 170.4,66.3 170.3,66.3 165.8,66.3 165.8,61.8 165.8,61.7 165.8,61.7 161,61.7 161,57.2 
		165.8,57.2 165.9,57.2 165.9,57.2 165.9,47.3 170.3,47.3 170.4,47.3 170.4,47.2 170.4,37.8 174.9,37.8 175,37.8 175,37.7 175,28.6 
		180.3,28.6 180.4,28.6 180.4,28.6 180.4,23.8 156.2,23.8 156.2,28.6 151.7,28.6 151.7,28.6 151.7,37.7 146.7,37.7 146.7,37.8 
		146.7,51.7 137.7,51.7 137.7,37.8 137.7,37.7 137.5,37.7 132.3,37.7 132.3,28.6 132.3,28.6 132.2,28.6 128,28.6 	"/>
	<polygon points="113.6,71.3 113.5,71.3 113.6,71.3 	"/>
	<polygon points="118.2,57.2 118.2,57.2 118.1,57.2 	"/>
	<polygon points="118.1,61.7 118.1,61.8 118.1,61.8 	"/>
	<polygon points="109.1,37.7 109.1,37.6 109,37.6 	"/>
	<polygon points="109,75.9 109,75.9 109,75.9 109,75.9 	"/>
	<polygon points="104.1,28.6 104.1,28.6 104.1,28.6 	"/>
	<polygon points="109,75.8 109,75.8 109,75.9 109,75.9 	"/>
	<polygon points="56.9,61.7 85.3,61.7 85.3,52.2 56.9,52.1 56.9,33.1 94.8,33.1 94.8,23.8 33.3,23.8 33.3,94.6 94.8,94.6 94.8,85.6 
		56.9,85.6 	"/>
	<polygon points="104,28.6 104,28.6 104.1,28.6 	"/>
	<polygon points="109,37.7 109,37.8 109,37.8 	"/>
	<polygon points="118.1,61.8 118.1,61.8 118.1,61.8 118.1,61.8 118.1,61.8 	"/>
	<polygon points="109,75.9 109,75.9 109,75.8 109,71.3 113.5,71.3 113.5,61.8 118.1,61.8 118.1,57.3 113.5,57.3 113.5,47.7 
		109,47.7 109,37.8 104,37.8 104,28.6 99.4,28.6 99.4,37.8 61.5,37.8 61.5,47.8 89.8,47.8 89.8,66.4 61.5,66.4 61.5,80.5 99.5,80.5 
		99.5,85.3 104.1,85.3 104.1,75.9 	"/>
	<polygon points="118.1,57.2 118.1,57.3 118.1,57.3 	"/>
	<polygon points="109,75.9 109,75.9 109,75.9 109,75.9 109,75.9 109,75.9 109.1,75.9 	"/>
	<polygon points="113.6,71.3 113.6,71.3 113.5,71.3 113.5,71.3 113.5,71.4 	"/>
	<polygon points="104.1,85.4 104.1,85.3 104.1,85.3 104.1,85.4 104.1,85.5 	"/>
	<polygon points="57.3,284.2 57.3,279.3 62.2,279.3 62.2,270.2 66.6,270.2 66.6,265.4 42.7,265.4 42.7,274.8 38.2,274.8 38.2,284.2 
			"/>
	<polygon points="38.2,274.8 38.2,274.8 38.1,274.8 	"/>
	<polygon points="38.2,274.8 38.2,274.8 38.2,274.8 	"/>
	<rect x="33.7" y="270.2" width="4.4" height="4.6"/>
	<polygon points="33.6,270.2 33.7,270.2 33.7,270.1 33.6,270.2 	"/>
	<polygon points="38.2,274.8 38.2,274.8 38.1,274.8 38.1,274.8 	"/>
	<path d="M374,23.8v70.6h24V66.1h18.6v5.3h4.9v23.1v0.1h0.1h28.6V90v-0.1h0h-5V75.8h-4.5v-9.8v-0.1h-0.1h-14.3v-4.6h9.8v-4.5h9h0.1
		l0-0.1l-0.4-28.1l0-0.1h0h-8.7v-5.3v-0.1c0,0,0,0-0.1,0c-18.1,0-36.3,0-54.4,0.1C379.1,23.2,376.5,23.6,374,23.8z M398,33.2h23.4
		v23.4H398V33.2z"/>
	<polygon points="483,94.4 501.9,94.4 501.9,37.5 530,37.5 530,23.4 454.8,23.4 454.8,37.8 483,37.8 	"/>
	<path d="M194.5,94.4h23.1V71.3h38h0.1v-0.1v-9.6h4.6v-9.9h4.9v-14v0h-0.1h-4.9v-9.1v-0.1l-0.1,0l-9,0v-5v0h-0.1h-56.6V94.4z
		 M217.7,33.3H237v4.4h4.5V57h-23.8V33.3z"/>
	<path d="M128,379.2h-4.6v-14.1h-9.7v-4.6h-9.3v-9.4h14h0V351v-4.6h5v-23.9v-0.1h-0.1H114v-4.5v0H38.5v71.2h28.3v-28.3H90v9h5.2
		v19.4v0.1l0.1,0l32.7-0.4V379.2z M95.2,346.5H80.8v0h-0.1l0.1,4.4h-14v-23.8h23.1v9.3H90v0.1h5.2V346.5z"/>
	<rect x="374.4" y="318.1" width="27.9" height="70.6"/>
	<polygon points="317.5,365.2 317.5,365.2 317.5,365.1 	"/>
	<path d="M355.3,336.5h-0.2h-4.4v-9.5V327h-0.2h-4.8v-4.5v0h-0.2h-13.9v-4.5v0h-0.1h-75.3v71h52h0.1v-0.1v-4.9h28.1h0.1v-0.1v-4.4
		h9.1h0.1v-0.1v-4.5h5.3h0.1v-0.1v-9.9h4.4h0.1c0,0,0,0,0-0.1C355.5,355.3,355.4,346,355.3,336.5
		C355.3,336.6,355.3,336.5,355.3,336.5z M322.3,365.2h-4.8v9.4h-33.1v-47.4h28.4v4.8h4.6v4.6h4.8V365.2z"/>
	<polygon points="474.2,151.2 474.2,151.2 474.1,151.3 474.2,151.3 474.2,151.3 474.2,151.3 474.2,151.2 	"/>
	<polygon points="483.3,136.8 483.3,136.8 483.3,136.8 483.3,136.7 483.3,136.7 483.3,136.8 483.2,136.8 	"/>
	<polygon points="488.2,128.1 488.2,128 488.2,128 488.2,128.1 488.2,128.1 	"/>
	<polygon points="478.7,142.2 478.8,142.2 478.8,142.2 478.8,142.1 478.7,142.1 478.7,142.2 478.7,142.2 	"/>
	<polygon points="492.8,128.1 488.3,128.1 488.2,128.1 488.2,128.1 488.2,136.8 483.3,136.8 483.3,136.8 483.3,136.8 483.3,142.2 
		478.8,142.2 478.8,142.2 478.8,142.2 478.8,151.3 474.2,151.3 474.2,156.1 507,156.1 507,151.2 511.5,151.2 511.5,142.2 
		516.4,142.2 516.4,142.1 516.5,142.1 516.5,136.7 521.1,136.7 521.1,127.7 525.5,127.7 525.5,127.6 525.6,127.6 525.5,118.2 
		497.3,118.2 497.3,122.6 492.8,122.6 492.8,122.7 	"/>
	<polygon points="525.6,127.6 525.5,127.6 525.5,127.7 525.5,132.2 531,132.2 531,132.2 531,132.2 531,127.6 	"/>
	<polygon points="516.5,142.1 516.4,142.1 516.4,142.2 516.4,146.8 521,146.8 521,146.7 521,142.1 	"/>
	<path d="M241.7,379.3L241.7,379.3L241.7,379.3l-4.6-0.1v-9.5v0h-0.1h-4.9v-9.1v0h-0.1h-4.5v-14.5v-0.1h-0.1H223v-9.5v0h-5v-9.5V327
		h-4.5v-9.1v0h0h-47.2v9.1h-4.9h-0.1v0.1v9.4h-4.5h-0.1v0.1v9.9h-4.5h0v0.1v9h-5.3h-0.1v0.1v9.4h-4.5h-0.1v0.1v9.4h-4.5h-0.1v0.1
		v13.9h28.7v-4.8h4.5h0v-0.1v-13.9h38.1v18.9v0.1h0.1h32.7V379.3z M203.4,360.4h-27.9v-4.7l4.8-0.7v-13.9h4.6v-0.1h0.1l0-13.9h9.5
		c0,1.8,0,3.7,0,5.6c0.1,4.6,0.2,9.1,0.4,13.7h0.1v0h4.1v8.7h4.5V360.4z"/>
	<path d="M274.4,75.9L274.4,75.9h5.4v9.5v0.1h0.1h4.5v4.5V90h0.1h4.4v4.5v0.1h0.1H317v4.9v0.1h0.1h5.3h0c0,0,0-0.1,0-0.1
		c-0.2-1.6-0.4-3.1-0.6-4.9h23.7h0v-0.1V90h5h0v-0.1v-4.5h4.5h0v-0.1v-14h4.5h0v-0.1V42.7v-0.1h0h-4.5v-9.5v-0.1h0h-4.5v-4.5v-0.1h0
		h-9.5v-4.9v-0.1h0h-47.2h-0.1v0.1v4.9h-9.5h-0.1v0.1v4.5h-4.5h-0.1v0.1v9.4h-5.3h0v0.1V75.9L274.4,75.9z M298.5,57.2h4.5v-0.1V37.8
		h4.9v-4.5h18.7v9.3h0.1v0.1h4.5v9.1h0.1v0.1l5.2,0v14h-5.2v0.1h-0.1v14.4h-4.5v4.9H308v-4.8h-5V65.9v-0.1h-4.5V57.2z"/>
	<path d="M530.6,346L530.6,346H526v-19.4v-0.1h-4.6v-4.5V322h0h-9.9v-4.5v-0.1l0,0l-66.3,0.4l-0.1,0v0.1v3.9l-9.1,0.6l-0.1,0v0.1
		v4.1h-9.5h-0.1v0.1v14.4H422h-0.1v0.1v19v0.1h0.1h4.4v14.5v0h0.1h4.4v4.6h5v4.6h13.9l0.6,5H502v-5.4h9.9v-4.6h9.5v-4.6h4.6v-23.6
		h4.5h0v0V346L530.6,346z M497.2,364.7h-4.4v0.1h-0.1v9.8h-9.5v4.5h-14v-4.4h-10v-14.5h-0.1v-0.1h-4.4v-19h4.4v-0.1h0.1v-14.3h33.5
		v14.3h0.1v0l4.4,0V364.7z"/>
	<polygon points="450.1,250.8 450.1,255.7 450.2,255.7 454.7,255.8 454.7,255.8 454.7,255.7 454.6,250.8 	"/>
	<polygon points="454.6,250.8 454.6,250.8 454.7,250.8 	"/>
	<polygon points="450.1,250.8 450,250.8 450.1,250.8 450.1,250.8 450.1,250.8 	"/>
	<polygon points="440.6,255.7 440.6,255.7 440.6,255.7 	"/>
	<polygon points="445.6,255.7 445.6,250.8 445.5,250.8 440.6,250.7 440.6,250.7 440.6,250.8 440.6,255.7 	"/>
	<polygon points="450.1,246.2 450.2,246.2 450.1,246.2 	"/>
	<path d="M445.6,250.7h4.5v-4.5l-4.5-0.1l0,0c0,0,0,0,0,0.1C445.6,247.7,445.6,249.2,445.6,250.7L445.6,250.7z"/>
	<path d="M445.5,250.7L445.5,250.7C445.5,250.8,445.5,250.7,445.5,250.7L445.5,250.7z"/>
	<polygon points="450.1,250.8 450.1,250.8 450.2,250.7 450.1,250.7 450.1,250.8 	"/>
	<polygon points="450.1,255.8 445.6,255.8 445.6,260.3 450.1,260.3 450.2,260.3 450.2,260.3 450.2,255.8 	"/>
	<polygon points="445.6,260.3 445.6,260.3 445.5,260.3 	"/>
	<polygon points="450.2,255.8 450.2,255.7 450.2,255.8 	"/>
	<rect x="402.5" y="37.8" width="13.8" height="13.8"/>
	<path d="M231.6,37.8h-9.1c0,4.3,0,8.4,0,12.5c0,0.5,0.7,1.5,1.2,1.5c4.4,0.1,8.8,0.1,13.1,0.1v-9.2h-5.3V37.8z"/>
	<polygon points="90,341 90,336.6 90,336.5 89.9,336.5 85.3,336.5 85.3,332.1 71.4,332.1 71.4,346.5 80.8,346.5 80.8,346.5 
		80.8,346.5 80.8,341 	"/>
	<polygon points="317.5,365.1 317.5,365.1 317.5,365.1 	"/>
	<polygon points="312.9,341 312.9,336.5 308.3,336.5 308.3,332.2 289,332.2 289,369.6 313,369.6 313,365.1 317.5,365.1 317.5,341 	
		"/>
	<polygon points="194.8,355.1 194.8,346.5 194.8,346.5 194.8,346.5 189.4,346.5 189.4,341.1 184.9,341.1 184.8,341.1 184.8,341.1 
		184.8,355.1 	"/>
	<polygon points="303,65.9 308.1,65.9 308.1,75.9 312.6,75.9 312.6,80.3 322.2,80.3 322.2,75.8 326.7,75.8 326.7,65.9 331.1,65.9 
		331.2,65.9 331.2,65.9 331.2,51.8 331.2,51.8 331.1,51.8 326.7,51.8 326.7,42.7 326.7,42.7 326.6,42.7 322,42.7 322,37.9 
		312.5,37.9 312.5,42.7 307.9,42.7 307.9,57.2 303,57.2 303,57.2 303,65.9 	"/>
	<polygon points="492.8,341.1 492.8,341.1 487.7,341.1 487.7,332.1 464.6,332.1 464.6,341.1 459.3,341.1 459.2,341.1 459.2,341.1 
		459.2,360.1 459.2,360.2 459.3,360.2 464.7,360.2 464.7,369.3 473.8,369.3 473.8,374.5 478.8,374.5 478.8,369.2 487.9,369.2 
		487.9,364.8 492.7,364.8 492.8,364.8 492.8,364.7 492.8,341.1 	"/>
</g>
</svg>
